# xmcd
#
# Track frame offsets: 
#        150
#        10673
#        21788
#        35394
#        50690
#        64525
#        77741
#        91791
#        105692
#        121307
#        132823
#        155253
#        170699
#        181379
#        195215
#        205295
#        223776
#        236844
#
# Disc length: 3357 seconds
#
# Revision: 3
# Processed by: cddbd v1.4PL0 Copyright (c) Steve Scherf et al.
# Submitted via: ExactAudioCopy v0.95a4
#
DISCID=e90d1b12
DTITLE=Louis Armstrong - Louis Armstrong's All Time Greatest Hits
DYEAR=1900
DGENRE=
TTITLE0=What A Wonderful World
TTITLE1=Hello Dolly
TTITLE2=Sittin' In The Sun
TTITLE3=Mack The Knife (Theme from "Three Penny Opera")
TTITLE4=A Kiss To Build A Dream On
TTITLE5=It Takes Two To Tango
TTITLE6=That Lucky Old Run
TTITLE7=Kiss Of Fire
TTITLE8=(When We Are Dancin') I Get Ideas
TTITLE9=Gone Fishin' (Duet with Bing Crosby)
TTITLE10=Skokiaan
TTITLE11=La Vie En Rose
TTITLE12=The Dummy Song
TTITLE13=Chloe
TTITLE14=I Still Get Jealous
TTITLE15=When You're Smiling (The Whole World Smiles With You)
TTITLE16=Bluberry Hill
TTITLE17=When It's Sleepy Time Down South
EXTD=
EXTT0=
EXTT1=
EXTT2=
EXTT3=
EXTT4=
EXTT5=
EXTT6=
EXTT7=
EXTT8=
EXTT9=
EXTT10=
EXTT11=
EXTT12=
EXTT13=
EXTT14=
EXTT15=
EXTT16=
EXTT17=
PLAYORDER=
